<mxfile host="app.diagrams.net" modified="2021-04-24T14:56:57.510Z" agent="5.0 (Windows NT 10.0; Win64; x64) AppleWebKit/537.36 (KHTML, like Gecko) Chrome/90.0.4430.85 Safari/537.36" etag="VW9V5-Qe-fI6fQyyUYiR" version="14.4.9" type="github">
  <diagram id="R2lEEEUBdFMjLlhIrx00" name="Page-1">
    <mxGraphModel dx="1454" dy="725" grid="1" gridSize="10" guides="1" tooltips="1" connect="1" arrows="1" fold="1" page="1" pageScale="1" pageWidth="850" pageHeight="1100" math="0" shadow="0" extFonts="Permanent Marker^https://fonts.googleapis.com/css?family=Permanent+Marker">
      <root>
        <mxCell id="0" />
        <mxCell id="1" parent="0" />
        <mxCell id="cVKj1Lbu5gOnooN9UQbO-29" value="" style="edgeStyle=entityRelationEdgeStyle;fontSize=12;html=1;endArrow=ERzeroToMany;startArrow=ERmandOne;exitX=1;exitY=0.5;exitDx=0;exitDy=0;entryX=0;entryY=0.5;entryDx=0;entryDy=0;" edge="1" parent="1" source="cVKj1Lbu5gOnooN9UQbO-3" target="cVKj1Lbu5gOnooN9UQbO-19">
          <mxGeometry width="100" height="100" relative="1" as="geometry">
            <mxPoint x="360" y="370" as="sourcePoint" />
            <mxPoint x="460" y="270" as="targetPoint" />
          </mxGeometry>
        </mxCell>
        <mxCell id="cVKj1Lbu5gOnooN9UQbO-44" value="" style="edgeStyle=entityRelationEdgeStyle;fontSize=12;html=1;endArrow=ERzeroToMany;startArrow=ERmandOne;exitX=1;exitY=0.5;exitDx=0;exitDy=0;entryX=0;entryY=0.5;entryDx=0;entryDy=0;" edge="1" parent="1" source="cVKj1Lbu5gOnooN9UQbO-3" target="cVKj1Lbu5gOnooN9UQbO-38">
          <mxGeometry width="100" height="100" relative="1" as="geometry">
            <mxPoint x="470" y="360" as="sourcePoint" />
            <mxPoint x="570" y="260" as="targetPoint" />
          </mxGeometry>
        </mxCell>
        <mxCell id="cVKj1Lbu5gOnooN9UQbO-45" value="" style="edgeStyle=entityRelationEdgeStyle;fontSize=12;html=1;endArrow=ERzeroToMany;startArrow=ERmandOne;exitX=1;exitY=0.5;exitDx=0;exitDy=0;entryX=1;entryY=0.5;entryDx=0;entryDy=0;" edge="1" parent="1" source="cVKj1Lbu5gOnooN9UQbO-16" target="cVKj1Lbu5gOnooN9UQbO-35">
          <mxGeometry width="100" height="100" relative="1" as="geometry">
            <mxPoint x="300" y="165" as="sourcePoint" />
            <mxPoint x="390" y="455" as="targetPoint" />
          </mxGeometry>
        </mxCell>
        <mxCell id="cVKj1Lbu5gOnooN9UQbO-59" value="" style="edgeStyle=entityRelationEdgeStyle;fontSize=12;html=1;endArrow=ERzeroToMany;startArrow=ERmandOne;exitX=1;exitY=0.5;exitDx=0;exitDy=0;entryX=0;entryY=0.5;entryDx=0;entryDy=0;" edge="1" parent="1" source="cVKj1Lbu5gOnooN9UQbO-32" target="cVKj1Lbu5gOnooN9UQbO-50">
          <mxGeometry width="100" height="100" relative="1" as="geometry">
            <mxPoint x="560" y="330" as="sourcePoint" />
            <mxPoint x="650" y="620" as="targetPoint" />
          </mxGeometry>
        </mxCell>
        <mxCell id="cVKj1Lbu5gOnooN9UQbO-73" value="" style="edgeStyle=entityRelationEdgeStyle;fontSize=12;html=1;endArrow=ERzeroToMany;startArrow=ERmandOne;exitX=1;exitY=0.5;exitDx=0;exitDy=0;entryX=1;entryY=0.5;entryDx=0;entryDy=0;" edge="1" parent="1" source="cVKj1Lbu5gOnooN9UQbO-32" target="cVKj1Lbu5gOnooN9UQbO-64">
          <mxGeometry width="100" height="100" relative="1" as="geometry">
            <mxPoint x="610" y="595" as="sourcePoint" />
            <mxPoint x="800" y="740" as="targetPoint" />
          </mxGeometry>
        </mxCell>
        <mxCell id="cVKj1Lbu5gOnooN9UQbO-74" value="" style="edgeStyle=entityRelationEdgeStyle;fontSize=12;html=1;endArrow=ERzeroToMany;startArrow=ERmandOne;entryX=1;entryY=0.5;entryDx=0;entryDy=0;exitX=0;exitY=0.5;exitDx=0;exitDy=0;" edge="1" parent="1" source="cVKj1Lbu5gOnooN9UQbO-47" target="cVKj1Lbu5gOnooN9UQbO-67">
          <mxGeometry width="100" height="100" relative="1" as="geometry">
            <mxPoint x="690" y="460" as="sourcePoint" />
            <mxPoint x="850" y="790" as="targetPoint" />
          </mxGeometry>
        </mxCell>
        <mxCell id="cVKj1Lbu5gOnooN9UQbO-88" value="" style="edgeStyle=entityRelationEdgeStyle;fontSize=12;html=1;endArrow=ERzeroToMany;startArrow=ERmandOne;entryX=1;entryY=0.5;entryDx=0;entryDy=0;exitX=1;exitY=0.5;exitDx=0;exitDy=0;" edge="1" parent="1" source="cVKj1Lbu5gOnooN9UQbO-47" target="cVKj1Lbu5gOnooN9UQbO-79">
          <mxGeometry width="100" height="100" relative="1" as="geometry">
            <mxPoint x="1060" y="470" as="sourcePoint" />
            <mxPoint x="860" y="830" as="targetPoint" />
          </mxGeometry>
        </mxCell>
        <mxCell id="cVKj1Lbu5gOnooN9UQbO-90" value="" style="edgeStyle=entityRelationEdgeStyle;fontSize=12;html=1;endArrow=ERzeroToMany;startArrow=ERmandOne;exitX=1;exitY=0.5;exitDx=0;exitDy=0;entryX=0;entryY=0.5;entryDx=0;entryDy=0;" edge="1" parent="1" source="cVKj1Lbu5gOnooN9UQbO-32" target="cVKj1Lbu5gOnooN9UQbO-82">
          <mxGeometry width="100" height="100" relative="1" as="geometry">
            <mxPoint x="560" y="390" as="sourcePoint" />
            <mxPoint x="760" y="450" as="targetPoint" />
          </mxGeometry>
        </mxCell>
        <mxCell id="cVKj1Lbu5gOnooN9UQbO-104" value="" style="edgeStyle=entityRelationEdgeStyle;fontSize=12;html=1;endArrow=ERzeroToMany;startArrow=ERmandOne;entryX=1;entryY=0.5;entryDx=0;entryDy=0;exitX=0;exitY=0.5;exitDx=0;exitDy=0;" edge="1" parent="1" source="cVKj1Lbu5gOnooN9UQbO-61" target="cVKj1Lbu5gOnooN9UQbO-95">
          <mxGeometry width="100" height="100" relative="1" as="geometry">
            <mxPoint x="330" y="690" as="sourcePoint" />
            <mxPoint x="130" y="1050" as="targetPoint" />
          </mxGeometry>
        </mxCell>
        <mxCell id="cVKj1Lbu5gOnooN9UQbO-118" value="" style="edgeStyle=entityRelationEdgeStyle;fontSize=12;html=1;endArrow=ERzeroToMany;startArrow=ERmandOne;entryX=1;entryY=0.5;entryDx=0;entryDy=0;exitX=0;exitY=0.5;exitDx=0;exitDy=0;" edge="1" parent="1" source="cVKj1Lbu5gOnooN9UQbO-61" target="cVKj1Lbu5gOnooN9UQbO-109">
          <mxGeometry width="100" height="100" relative="1" as="geometry">
            <mxPoint x="350" y="535" as="sourcePoint" />
            <mxPoint x="220" y="565" as="targetPoint" />
          </mxGeometry>
        </mxCell>
        <mxCell id="cVKj1Lbu5gOnooN9UQbO-123" value="" style="group" vertex="1" connectable="0" parent="1">
          <mxGeometry x="760" y="600" width="180" height="290" as="geometry" />
        </mxCell>
        <mxCell id="cVKj1Lbu5gOnooN9UQbO-127" value="" style="shape=partialRectangle;collapsible=0;dropTarget=0;pointerEvents=0;fillColor=none;top=0;left=0;bottom=0;right=0;points=[[0,0.5],[1,0.5]];portConstraint=eastwest;" vertex="1" parent="cVKj1Lbu5gOnooN9UQbO-123">
          <mxGeometry y="210" width="180" height="30" as="geometry" />
        </mxCell>
        <mxCell id="cVKj1Lbu5gOnooN9UQbO-128" value="" style="shape=partialRectangle;connectable=0;fillColor=none;top=0;left=0;bottom=0;right=0;editable=1;overflow=hidden;" vertex="1" parent="cVKj1Lbu5gOnooN9UQbO-127">
          <mxGeometry width="30" height="30" as="geometry" />
        </mxCell>
        <mxCell id="cVKj1Lbu5gOnooN9UQbO-129" value="" style="shape=partialRectangle;connectable=0;fillColor=none;top=0;left=0;bottom=0;right=0;align=left;spacingLeft=6;overflow=hidden;" vertex="1" parent="cVKj1Lbu5gOnooN9UQbO-127">
          <mxGeometry x="30" width="150" height="30" as="geometry" />
        </mxCell>
        <mxCell id="cVKj1Lbu5gOnooN9UQbO-173" value="" style="group" vertex="1" connectable="0" parent="cVKj1Lbu5gOnooN9UQbO-123">
          <mxGeometry width="180" height="290" as="geometry" />
        </mxCell>
        <mxCell id="cVKj1Lbu5gOnooN9UQbO-174" value="" style="group" vertex="1" connectable="0" parent="cVKj1Lbu5gOnooN9UQbO-173">
          <mxGeometry width="180" height="290" as="geometry" />
        </mxCell>
        <mxCell id="cVKj1Lbu5gOnooN9UQbO-138" value="" style="group" vertex="1" connectable="0" parent="cVKj1Lbu5gOnooN9UQbO-174">
          <mxGeometry width="180" height="290" as="geometry" />
        </mxCell>
        <mxCell id="cVKj1Lbu5gOnooN9UQbO-130" value="" style="shape=partialRectangle;collapsible=0;dropTarget=0;pointerEvents=0;fillColor=none;top=0;left=0;bottom=0;right=0;points=[[0,0.5],[1,0.5]];portConstraint=eastwest;" vertex="1" parent="cVKj1Lbu5gOnooN9UQbO-138">
          <mxGeometry y="240" width="180" height="30" as="geometry" />
        </mxCell>
        <mxCell id="cVKj1Lbu5gOnooN9UQbO-131" value="" style="shape=partialRectangle;connectable=0;fillColor=none;top=0;left=0;bottom=0;right=0;editable=1;overflow=hidden;" vertex="1" parent="cVKj1Lbu5gOnooN9UQbO-130">
          <mxGeometry width="30" height="30" as="geometry" />
        </mxCell>
        <mxCell id="cVKj1Lbu5gOnooN9UQbO-132" value="" style="shape=partialRectangle;connectable=0;fillColor=none;top=0;left=0;bottom=0;right=0;align=left;spacingLeft=6;overflow=hidden;" vertex="1" parent="cVKj1Lbu5gOnooN9UQbO-130">
          <mxGeometry x="30" width="150" height="30" as="geometry" />
        </mxCell>
        <mxCell id="cVKj1Lbu5gOnooN9UQbO-137" value="" style="group" vertex="1" connectable="0" parent="cVKj1Lbu5gOnooN9UQbO-138">
          <mxGeometry width="180" height="290" as="geometry" />
        </mxCell>
        <mxCell id="cVKj1Lbu5gOnooN9UQbO-124" value="" style="shape=partialRectangle;collapsible=0;dropTarget=0;pointerEvents=0;fillColor=none;top=0;left=0;bottom=0;right=0;points=[[0,0.5],[1,0.5]];portConstraint=eastwest;" vertex="1" parent="cVKj1Lbu5gOnooN9UQbO-137">
          <mxGeometry y="180" width="180" height="30" as="geometry" />
        </mxCell>
        <mxCell id="cVKj1Lbu5gOnooN9UQbO-125" value="FK" style="shape=partialRectangle;connectable=0;fillColor=none;top=0;left=0;bottom=0;right=0;editable=1;overflow=hidden;" vertex="1" parent="cVKj1Lbu5gOnooN9UQbO-124">
          <mxGeometry width="30" height="30" as="geometry" />
        </mxCell>
        <mxCell id="cVKj1Lbu5gOnooN9UQbO-126" value="Attachment ID" style="shape=partialRectangle;connectable=0;fillColor=none;top=0;left=0;bottom=0;right=0;align=left;spacingLeft=6;overflow=hidden;" vertex="1" parent="cVKj1Lbu5gOnooN9UQbO-124">
          <mxGeometry x="30" width="150" height="30" as="geometry" />
        </mxCell>
        <mxCell id="cVKj1Lbu5gOnooN9UQbO-136" value="" style="group" vertex="1" connectable="0" parent="cVKj1Lbu5gOnooN9UQbO-137">
          <mxGeometry width="180" height="290" as="geometry" />
        </mxCell>
        <mxCell id="cVKj1Lbu5gOnooN9UQbO-75" value="Team Activity" style="shape=table;startSize=30;container=1;collapsible=1;childLayout=tableLayout;fixedRows=1;rowLines=0;fontStyle=1;align=center;resizeLast=1;rounded=0;sketch=0;" vertex="1" parent="cVKj1Lbu5gOnooN9UQbO-136">
          <mxGeometry width="180" height="290" as="geometry" />
        </mxCell>
        <mxCell id="cVKj1Lbu5gOnooN9UQbO-76" value="" style="shape=partialRectangle;collapsible=0;dropTarget=0;pointerEvents=0;fillColor=none;top=0;left=0;bottom=1;right=0;points=[[0,0.5],[1,0.5]];portConstraint=eastwest;" vertex="1" parent="cVKj1Lbu5gOnooN9UQbO-75">
          <mxGeometry y="30" width="180" height="30" as="geometry" />
        </mxCell>
        <mxCell id="cVKj1Lbu5gOnooN9UQbO-77" value="PK" style="shape=partialRectangle;connectable=0;fillColor=none;top=0;left=0;bottom=0;right=0;fontStyle=1;overflow=hidden;" vertex="1" parent="cVKj1Lbu5gOnooN9UQbO-76">
          <mxGeometry width="30" height="30" as="geometry" />
        </mxCell>
        <mxCell id="cVKj1Lbu5gOnooN9UQbO-78" value="ID" style="shape=partialRectangle;connectable=0;fillColor=none;top=0;left=0;bottom=0;right=0;align=left;spacingLeft=6;fontStyle=5;overflow=hidden;" vertex="1" parent="cVKj1Lbu5gOnooN9UQbO-76">
          <mxGeometry x="30" width="150" height="30" as="geometry" />
        </mxCell>
        <mxCell id="cVKj1Lbu5gOnooN9UQbO-79" value="" style="shape=partialRectangle;collapsible=0;dropTarget=0;pointerEvents=0;fillColor=none;top=0;left=0;bottom=0;right=0;points=[[0,0.5],[1,0.5]];portConstraint=eastwest;" vertex="1" parent="cVKj1Lbu5gOnooN9UQbO-75">
          <mxGeometry y="60" width="180" height="30" as="geometry" />
        </mxCell>
        <mxCell id="cVKj1Lbu5gOnooN9UQbO-80" value="FK" style="shape=partialRectangle;connectable=0;fillColor=none;top=0;left=0;bottom=0;right=0;editable=1;overflow=hidden;" vertex="1" parent="cVKj1Lbu5gOnooN9UQbO-79">
          <mxGeometry width="30" height="30" as="geometry" />
        </mxCell>
        <mxCell id="cVKj1Lbu5gOnooN9UQbO-81" value="Board ID" style="shape=partialRectangle;connectable=0;fillColor=none;top=0;left=0;bottom=0;right=0;align=left;spacingLeft=6;overflow=hidden;" vertex="1" parent="cVKj1Lbu5gOnooN9UQbO-79">
          <mxGeometry x="30" width="150" height="30" as="geometry" />
        </mxCell>
        <mxCell id="cVKj1Lbu5gOnooN9UQbO-82" value="" style="shape=partialRectangle;collapsible=0;dropTarget=0;pointerEvents=0;fillColor=none;top=0;left=0;bottom=0;right=0;points=[[0,0.5],[1,0.5]];portConstraint=eastwest;" vertex="1" parent="cVKj1Lbu5gOnooN9UQbO-75">
          <mxGeometry y="90" width="180" height="30" as="geometry" />
        </mxCell>
        <mxCell id="cVKj1Lbu5gOnooN9UQbO-83" value="FK" style="shape=partialRectangle;connectable=0;fillColor=none;top=0;left=0;bottom=0;right=0;editable=1;overflow=hidden;" vertex="1" parent="cVKj1Lbu5gOnooN9UQbO-82">
          <mxGeometry width="30" height="30" as="geometry" />
        </mxCell>
        <mxCell id="cVKj1Lbu5gOnooN9UQbO-84" value="Team Member ID" style="shape=partialRectangle;connectable=0;fillColor=none;top=0;left=0;bottom=0;right=0;align=left;spacingLeft=6;overflow=hidden;" vertex="1" parent="cVKj1Lbu5gOnooN9UQbO-82">
          <mxGeometry x="30" width="150" height="30" as="geometry" />
        </mxCell>
        <mxCell id="cVKj1Lbu5gOnooN9UQbO-85" value="" style="shape=partialRectangle;collapsible=0;dropTarget=0;pointerEvents=0;fillColor=none;top=0;left=0;bottom=0;right=0;points=[[0,0.5],[1,0.5]];portConstraint=eastwest;" vertex="1" parent="cVKj1Lbu5gOnooN9UQbO-75">
          <mxGeometry y="120" width="180" height="30" as="geometry" />
        </mxCell>
        <mxCell id="cVKj1Lbu5gOnooN9UQbO-86" value="FK" style="shape=partialRectangle;connectable=0;fillColor=none;top=0;left=0;bottom=0;right=0;editable=1;overflow=hidden;" vertex="1" parent="cVKj1Lbu5gOnooN9UQbO-85">
          <mxGeometry width="30" height="30" as="geometry" />
        </mxCell>
        <mxCell id="cVKj1Lbu5gOnooN9UQbO-87" value="Card ID" style="shape=partialRectangle;connectable=0;fillColor=none;top=0;left=0;bottom=0;right=0;align=left;spacingLeft=6;overflow=hidden;" vertex="1" parent="cVKj1Lbu5gOnooN9UQbO-85">
          <mxGeometry x="30" width="150" height="30" as="geometry" />
        </mxCell>
        <mxCell id="cVKj1Lbu5gOnooN9UQbO-119" value="" style="shape=partialRectangle;collapsible=0;dropTarget=0;pointerEvents=0;fillColor=none;top=0;left=0;bottom=0;right=0;points=[[0,0.5],[1,0.5]];portConstraint=eastwest;" vertex="1" parent="cVKj1Lbu5gOnooN9UQbO-136">
          <mxGeometry y="150" width="180" height="30" as="geometry" />
        </mxCell>
        <mxCell id="cVKj1Lbu5gOnooN9UQbO-120" value="FK" style="shape=partialRectangle;connectable=0;fillColor=none;top=0;left=0;bottom=0;right=0;editable=1;overflow=hidden;" vertex="1" parent="cVKj1Lbu5gOnooN9UQbO-119">
          <mxGeometry width="30" height="30" as="geometry" />
        </mxCell>
        <mxCell id="cVKj1Lbu5gOnooN9UQbO-121" value="Reply ID" style="shape=partialRectangle;connectable=0;fillColor=none;top=0;left=0;bottom=0;right=0;align=left;spacingLeft=6;overflow=hidden;" vertex="1" parent="cVKj1Lbu5gOnooN9UQbO-119">
          <mxGeometry x="30" width="150" height="30" as="geometry" />
        </mxCell>
        <mxCell id="cVKj1Lbu5gOnooN9UQbO-170" value="" style="shape=partialRectangle;collapsible=0;dropTarget=0;pointerEvents=0;fillColor=none;top=0;left=0;bottom=0;right=0;points=[[0,0.5],[1,0.5]];portConstraint=eastwest;" vertex="1" parent="cVKj1Lbu5gOnooN9UQbO-138">
          <mxGeometry y="239.99526315789467" width="180" height="28.421052631578945" as="geometry" />
        </mxCell>
        <mxCell id="cVKj1Lbu5gOnooN9UQbO-171" value="" style="shape=partialRectangle;connectable=0;fillColor=none;top=0;left=0;bottom=0;right=0;editable=1;overflow=hidden;" vertex="1" parent="cVKj1Lbu5gOnooN9UQbO-170">
          <mxGeometry width="30" height="28.421052631578945" as="geometry" />
        </mxCell>
        <mxCell id="cVKj1Lbu5gOnooN9UQbO-172" value="Date" style="shape=partialRectangle;connectable=0;fillColor=none;top=0;left=0;bottom=0;right=0;align=left;spacingLeft=6;overflow=hidden;" vertex="1" parent="cVKj1Lbu5gOnooN9UQbO-170">
          <mxGeometry x="30" width="150" height="28.421052631578945" as="geometry" />
        </mxCell>
        <mxCell id="cVKj1Lbu5gOnooN9UQbO-167" value="" style="shape=partialRectangle;collapsible=0;dropTarget=0;pointerEvents=0;fillColor=none;top=0;left=0;bottom=0;right=0;points=[[0,0.5],[1,0.5]];portConstraint=eastwest;" vertex="1" parent="cVKj1Lbu5gOnooN9UQbO-174">
          <mxGeometry y="209.99526315789467" width="180" height="28.421052631578945" as="geometry" />
        </mxCell>
        <mxCell id="cVKj1Lbu5gOnooN9UQbO-168" value="" style="shape=partialRectangle;connectable=0;fillColor=none;top=0;left=0;bottom=0;right=0;editable=1;overflow=hidden;" vertex="1" parent="cVKj1Lbu5gOnooN9UQbO-167">
          <mxGeometry width="30" height="28.421052631578945" as="geometry" />
        </mxCell>
        <mxCell id="cVKj1Lbu5gOnooN9UQbO-169" value="Detail" style="shape=partialRectangle;connectable=0;fillColor=none;top=0;left=0;bottom=0;right=0;align=left;spacingLeft=6;overflow=hidden;" vertex="1" parent="cVKj1Lbu5gOnooN9UQbO-167">
          <mxGeometry x="30" width="150" height="28.421052631578945" as="geometry" />
        </mxCell>
        <mxCell id="cVKj1Lbu5gOnooN9UQbO-139" value="" style="edgeStyle=entityRelationEdgeStyle;fontSize=12;html=1;endArrow=ERmandOne;startArrow=ERmandOne;entryX=0;entryY=0.5;entryDx=0;entryDy=0;exitX=1;exitY=0.5;exitDx=0;exitDy=0;" edge="1" parent="1" source="cVKj1Lbu5gOnooN9UQbO-92" target="cVKj1Lbu5gOnooN9UQbO-119">
          <mxGeometry width="100" height="100" relative="1" as="geometry">
            <mxPoint x="570" y="890" as="sourcePoint" />
            <mxPoint x="700" y="780" as="targetPoint" />
          </mxGeometry>
        </mxCell>
        <mxCell id="cVKj1Lbu5gOnooN9UQbO-140" value="" style="edgeStyle=entityRelationEdgeStyle;fontSize=12;html=1;endArrow=ERmandOne;startArrow=ERmandOne;entryX=0;entryY=0.5;entryDx=0;entryDy=0;exitX=1;exitY=0.5;exitDx=0;exitDy=0;" edge="1" parent="1" source="cVKj1Lbu5gOnooN9UQbO-61" target="cVKj1Lbu5gOnooN9UQbO-85">
          <mxGeometry width="100" height="100" relative="1" as="geometry">
            <mxPoint x="600" y="850" as="sourcePoint" />
            <mxPoint x="730" y="740" as="targetPoint" />
          </mxGeometry>
        </mxCell>
        <mxCell id="cVKj1Lbu5gOnooN9UQbO-141" value="" style="edgeStyle=entityRelationEdgeStyle;fontSize=12;html=1;endArrow=ERmandOne;startArrow=ERmandOne;exitX=1;exitY=0.5;exitDx=0;exitDy=0;" edge="1" parent="1" source="cVKj1Lbu5gOnooN9UQbO-106">
          <mxGeometry width="100" height="100" relative="1" as="geometry">
            <mxPoint x="590" y="970" as="sourcePoint" />
            <mxPoint x="760" y="800" as="targetPoint" />
          </mxGeometry>
        </mxCell>
        <mxCell id="cVKj1Lbu5gOnooN9UQbO-154" value="" style="group" vertex="1" connectable="0" parent="1">
          <mxGeometry x="70" y="70" width="180" height="240" as="geometry" />
        </mxCell>
        <mxCell id="cVKj1Lbu5gOnooN9UQbO-148" value="" style="shape=partialRectangle;collapsible=0;dropTarget=0;pointerEvents=0;fillColor=none;top=0;left=0;bottom=0;right=0;points=[[0,0.5],[1,0.5]];portConstraint=eastwest;" vertex="1" parent="cVKj1Lbu5gOnooN9UQbO-154">
          <mxGeometry y="210" width="180" height="30" as="geometry" />
        </mxCell>
        <mxCell id="cVKj1Lbu5gOnooN9UQbO-149" value="" style="shape=partialRectangle;connectable=0;fillColor=none;top=0;left=0;bottom=0;right=0;editable=1;overflow=hidden;" vertex="1" parent="cVKj1Lbu5gOnooN9UQbO-148">
          <mxGeometry width="30" height="30" as="geometry" />
        </mxCell>
        <mxCell id="cVKj1Lbu5gOnooN9UQbO-150" value="Date" style="shape=partialRectangle;connectable=0;fillColor=none;top=0;left=0;bottom=0;right=0;align=left;spacingLeft=6;overflow=hidden;" vertex="1" parent="cVKj1Lbu5gOnooN9UQbO-148">
          <mxGeometry x="30" width="150" height="30" as="geometry" />
        </mxCell>
        <mxCell id="cVKj1Lbu5gOnooN9UQbO-153" value="" style="group" vertex="1" connectable="0" parent="cVKj1Lbu5gOnooN9UQbO-154">
          <mxGeometry width="180" height="240" as="geometry" />
        </mxCell>
        <mxCell id="cVKj1Lbu5gOnooN9UQbO-145" value="" style="shape=partialRectangle;collapsible=0;dropTarget=0;pointerEvents=0;fillColor=none;top=0;left=0;bottom=0;right=0;points=[[0,0.5],[1,0.5]];portConstraint=eastwest;" vertex="1" parent="cVKj1Lbu5gOnooN9UQbO-153">
          <mxGeometry y="180" width="180" height="30" as="geometry" />
        </mxCell>
        <mxCell id="cVKj1Lbu5gOnooN9UQbO-146" value="" style="shape=partialRectangle;connectable=0;fillColor=none;top=0;left=0;bottom=0;right=0;editable=1;overflow=hidden;" vertex="1" parent="cVKj1Lbu5gOnooN9UQbO-145">
          <mxGeometry width="30" height="30" as="geometry" />
        </mxCell>
        <mxCell id="cVKj1Lbu5gOnooN9UQbO-147" value="Status" style="shape=partialRectangle;connectable=0;fillColor=none;top=0;left=0;bottom=0;right=0;align=left;spacingLeft=6;overflow=hidden;" vertex="1" parent="cVKj1Lbu5gOnooN9UQbO-145">
          <mxGeometry x="30" width="150" height="30" as="geometry" />
        </mxCell>
        <mxCell id="cVKj1Lbu5gOnooN9UQbO-152" value="" style="group" vertex="1" connectable="0" parent="cVKj1Lbu5gOnooN9UQbO-153">
          <mxGeometry width="180" height="240" as="geometry" />
        </mxCell>
        <mxCell id="cVKj1Lbu5gOnooN9UQbO-2" value="User" style="shape=table;startSize=30;container=1;collapsible=1;childLayout=tableLayout;fixedRows=1;rowLines=0;fontStyle=1;align=center;resizeLast=1;" vertex="1" parent="cVKj1Lbu5gOnooN9UQbO-152">
          <mxGeometry width="180" height="240" as="geometry" />
        </mxCell>
        <mxCell id="cVKj1Lbu5gOnooN9UQbO-3" value="" style="shape=partialRectangle;collapsible=0;dropTarget=0;pointerEvents=0;fillColor=none;top=0;left=0;bottom=1;right=0;points=[[0,0.5],[1,0.5]];portConstraint=eastwest;" vertex="1" parent="cVKj1Lbu5gOnooN9UQbO-2">
          <mxGeometry y="30" width="180" height="30" as="geometry" />
        </mxCell>
        <mxCell id="cVKj1Lbu5gOnooN9UQbO-4" value="PK" style="shape=partialRectangle;connectable=0;fillColor=none;top=0;left=0;bottom=0;right=0;fontStyle=1;overflow=hidden;" vertex="1" parent="cVKj1Lbu5gOnooN9UQbO-3">
          <mxGeometry width="30" height="30" as="geometry" />
        </mxCell>
        <mxCell id="cVKj1Lbu5gOnooN9UQbO-5" value="ID" style="shape=partialRectangle;connectable=0;fillColor=none;top=0;left=0;bottom=0;right=0;align=left;spacingLeft=6;fontStyle=5;overflow=hidden;" vertex="1" parent="cVKj1Lbu5gOnooN9UQbO-3">
          <mxGeometry x="30" width="150" height="30" as="geometry" />
        </mxCell>
        <mxCell id="cVKj1Lbu5gOnooN9UQbO-6" value="" style="shape=partialRectangle;collapsible=0;dropTarget=0;pointerEvents=0;fillColor=none;top=0;left=0;bottom=0;right=0;points=[[0,0.5],[1,0.5]];portConstraint=eastwest;" vertex="1" parent="cVKj1Lbu5gOnooN9UQbO-2">
          <mxGeometry y="60" width="180" height="30" as="geometry" />
        </mxCell>
        <mxCell id="cVKj1Lbu5gOnooN9UQbO-7" value="" style="shape=partialRectangle;connectable=0;fillColor=none;top=0;left=0;bottom=0;right=0;editable=1;overflow=hidden;" vertex="1" parent="cVKj1Lbu5gOnooN9UQbO-6">
          <mxGeometry width="30" height="30" as="geometry" />
        </mxCell>
        <mxCell id="cVKj1Lbu5gOnooN9UQbO-8" value="Email" style="shape=partialRectangle;connectable=0;fillColor=none;top=0;left=0;bottom=0;right=0;align=left;spacingLeft=6;overflow=hidden;" vertex="1" parent="cVKj1Lbu5gOnooN9UQbO-6">
          <mxGeometry x="30" width="150" height="30" as="geometry" />
        </mxCell>
        <mxCell id="cVKj1Lbu5gOnooN9UQbO-9" value="" style="shape=partialRectangle;collapsible=0;dropTarget=0;pointerEvents=0;fillColor=none;top=0;left=0;bottom=0;right=0;points=[[0,0.5],[1,0.5]];portConstraint=eastwest;" vertex="1" parent="cVKj1Lbu5gOnooN9UQbO-2">
          <mxGeometry y="90" width="180" height="30" as="geometry" />
        </mxCell>
        <mxCell id="cVKj1Lbu5gOnooN9UQbO-10" value="" style="shape=partialRectangle;connectable=0;fillColor=none;top=0;left=0;bottom=0;right=0;editable=1;overflow=hidden;" vertex="1" parent="cVKj1Lbu5gOnooN9UQbO-9">
          <mxGeometry width="30" height="30" as="geometry" />
        </mxCell>
        <mxCell id="cVKj1Lbu5gOnooN9UQbO-11" value="Password" style="shape=partialRectangle;connectable=0;fillColor=none;top=0;left=0;bottom=0;right=0;align=left;spacingLeft=6;overflow=hidden;" vertex="1" parent="cVKj1Lbu5gOnooN9UQbO-9">
          <mxGeometry x="30" width="150" height="30" as="geometry" />
        </mxCell>
        <mxCell id="cVKj1Lbu5gOnooN9UQbO-12" value="" style="shape=partialRectangle;collapsible=0;dropTarget=0;pointerEvents=0;fillColor=none;top=0;left=0;bottom=0;right=0;points=[[0,0.5],[1,0.5]];portConstraint=eastwest;" vertex="1" parent="cVKj1Lbu5gOnooN9UQbO-2">
          <mxGeometry y="120" width="180" height="30" as="geometry" />
        </mxCell>
        <mxCell id="cVKj1Lbu5gOnooN9UQbO-13" value="" style="shape=partialRectangle;connectable=0;fillColor=none;top=0;left=0;bottom=0;right=0;editable=1;overflow=hidden;" vertex="1" parent="cVKj1Lbu5gOnooN9UQbO-12">
          <mxGeometry width="30" height="30" as="geometry" />
        </mxCell>
        <mxCell id="cVKj1Lbu5gOnooN9UQbO-14" value="Role" style="shape=partialRectangle;connectable=0;fillColor=none;top=0;left=0;bottom=0;right=0;align=left;spacingLeft=6;overflow=hidden;" vertex="1" parent="cVKj1Lbu5gOnooN9UQbO-12">
          <mxGeometry x="30" width="150" height="30" as="geometry" />
        </mxCell>
        <mxCell id="cVKj1Lbu5gOnooN9UQbO-142" value="" style="shape=partialRectangle;collapsible=0;dropTarget=0;pointerEvents=0;fillColor=none;top=0;left=0;bottom=0;right=0;points=[[0,0.5],[1,0.5]];portConstraint=eastwest;" vertex="1" parent="cVKj1Lbu5gOnooN9UQbO-152">
          <mxGeometry y="150" width="180" height="30" as="geometry" />
        </mxCell>
        <mxCell id="cVKj1Lbu5gOnooN9UQbO-143" value="" style="shape=partialRectangle;connectable=0;fillColor=none;top=0;left=0;bottom=0;right=0;editable=1;overflow=hidden;" vertex="1" parent="cVKj1Lbu5gOnooN9UQbO-142">
          <mxGeometry width="30" height="30" as="geometry" />
        </mxCell>
        <mxCell id="cVKj1Lbu5gOnooN9UQbO-144" value="Name" style="shape=partialRectangle;connectable=0;fillColor=none;top=0;left=0;bottom=0;right=0;align=left;spacingLeft=6;overflow=hidden;" vertex="1" parent="cVKj1Lbu5gOnooN9UQbO-142">
          <mxGeometry x="30" width="150" height="30" as="geometry" />
        </mxCell>
        <mxCell id="cVKj1Lbu5gOnooN9UQbO-158" value="" style="group" vertex="1" connectable="0" parent="1">
          <mxGeometry x="380" y="340" width="180" height="150" as="geometry" />
        </mxCell>
        <mxCell id="cVKj1Lbu5gOnooN9UQbO-155" value="" style="shape=partialRectangle;collapsible=0;dropTarget=0;pointerEvents=0;fillColor=none;top=0;left=0;bottom=0;right=0;points=[[0,0.5],[1,0.5]];portConstraint=eastwest;" vertex="1" parent="cVKj1Lbu5gOnooN9UQbO-158">
          <mxGeometry y="120" width="180" height="30" as="geometry" />
        </mxCell>
        <mxCell id="cVKj1Lbu5gOnooN9UQbO-156" value="" style="shape=partialRectangle;connectable=0;fillColor=none;top=0;left=0;bottom=0;right=0;editable=1;overflow=hidden;" vertex="1" parent="cVKj1Lbu5gOnooN9UQbO-155">
          <mxGeometry width="30" height="30" as="geometry" />
        </mxCell>
        <mxCell id="cVKj1Lbu5gOnooN9UQbO-157" value="Date" style="shape=partialRectangle;connectable=0;fillColor=none;top=0;left=0;bottom=0;right=0;align=left;spacingLeft=6;overflow=hidden;" vertex="1" parent="cVKj1Lbu5gOnooN9UQbO-155">
          <mxGeometry x="30" width="150" height="30" as="geometry" />
        </mxCell>
        <mxCell id="cVKj1Lbu5gOnooN9UQbO-187" value="" style="group" vertex="1" connectable="0" parent="cVKj1Lbu5gOnooN9UQbO-158">
          <mxGeometry width="180" height="150" as="geometry" />
        </mxCell>
        <mxCell id="cVKj1Lbu5gOnooN9UQbO-31" value="Team Member" style="shape=table;startSize=30;container=1;collapsible=1;childLayout=tableLayout;fixedRows=1;rowLines=0;fontStyle=1;align=center;resizeLast=1;" vertex="1" parent="cVKj1Lbu5gOnooN9UQbO-187">
          <mxGeometry width="180" height="150" as="geometry" />
        </mxCell>
        <mxCell id="cVKj1Lbu5gOnooN9UQbO-32" value="" style="shape=partialRectangle;collapsible=0;dropTarget=0;pointerEvents=0;fillColor=none;top=0;left=0;bottom=1;right=0;points=[[0,0.5],[1,0.5]];portConstraint=eastwest;" vertex="1" parent="cVKj1Lbu5gOnooN9UQbO-31">
          <mxGeometry y="30" width="180" height="30" as="geometry" />
        </mxCell>
        <mxCell id="cVKj1Lbu5gOnooN9UQbO-33" value="PK" style="shape=partialRectangle;connectable=0;fillColor=none;top=0;left=0;bottom=0;right=0;fontStyle=1;overflow=hidden;" vertex="1" parent="cVKj1Lbu5gOnooN9UQbO-32">
          <mxGeometry width="30" height="30" as="geometry" />
        </mxCell>
        <mxCell id="cVKj1Lbu5gOnooN9UQbO-34" value="ID" style="shape=partialRectangle;connectable=0;fillColor=none;top=0;left=0;bottom=0;right=0;align=left;spacingLeft=6;fontStyle=5;overflow=hidden;" vertex="1" parent="cVKj1Lbu5gOnooN9UQbO-32">
          <mxGeometry x="30" width="150" height="30" as="geometry" />
        </mxCell>
        <mxCell id="cVKj1Lbu5gOnooN9UQbO-35" value="" style="shape=partialRectangle;collapsible=0;dropTarget=0;pointerEvents=0;fillColor=none;top=0;left=0;bottom=0;right=0;points=[[0,0.5],[1,0.5]];portConstraint=eastwest;" vertex="1" parent="cVKj1Lbu5gOnooN9UQbO-31">
          <mxGeometry y="60" width="180" height="30" as="geometry" />
        </mxCell>
        <mxCell id="cVKj1Lbu5gOnooN9UQbO-36" value="FK" style="shape=partialRectangle;connectable=0;fillColor=none;top=0;left=0;bottom=0;right=0;editable=1;overflow=hidden;" vertex="1" parent="cVKj1Lbu5gOnooN9UQbO-35">
          <mxGeometry width="30" height="30" as="geometry" />
        </mxCell>
        <mxCell id="cVKj1Lbu5gOnooN9UQbO-37" value="Team ID" style="shape=partialRectangle;connectable=0;fillColor=none;top=0;left=0;bottom=0;right=0;align=left;spacingLeft=6;overflow=hidden;" vertex="1" parent="cVKj1Lbu5gOnooN9UQbO-35">
          <mxGeometry x="30" width="150" height="30" as="geometry" />
        </mxCell>
        <mxCell id="cVKj1Lbu5gOnooN9UQbO-38" value="" style="shape=partialRectangle;collapsible=0;dropTarget=0;pointerEvents=0;fillColor=none;top=0;left=0;bottom=0;right=0;points=[[0,0.5],[1,0.5]];portConstraint=eastwest;" vertex="1" parent="cVKj1Lbu5gOnooN9UQbO-31">
          <mxGeometry y="90" width="180" height="30" as="geometry" />
        </mxCell>
        <mxCell id="cVKj1Lbu5gOnooN9UQbO-39" value="FK" style="shape=partialRectangle;connectable=0;fillColor=none;top=0;left=0;bottom=0;right=0;editable=1;overflow=hidden;" vertex="1" parent="cVKj1Lbu5gOnooN9UQbO-38">
          <mxGeometry width="30" height="30" as="geometry" />
        </mxCell>
        <mxCell id="cVKj1Lbu5gOnooN9UQbO-40" value="User ID" style="shape=partialRectangle;connectable=0;fillColor=none;top=0;left=0;bottom=0;right=0;align=left;spacingLeft=6;overflow=hidden;" vertex="1" parent="cVKj1Lbu5gOnooN9UQbO-38">
          <mxGeometry x="30" width="150" height="30" as="geometry" />
        </mxCell>
        <mxCell id="cVKj1Lbu5gOnooN9UQbO-162" value="" style="group" vertex="1" connectable="0" parent="1">
          <mxGeometry x="380" y="100" width="180" height="220" as="geometry" />
        </mxCell>
        <mxCell id="cVKj1Lbu5gOnooN9UQbO-159" value="" style="shape=partialRectangle;collapsible=0;dropTarget=0;pointerEvents=0;fillColor=none;top=0;left=0;bottom=0;right=0;points=[[0,0.5],[1,0.5]];portConstraint=eastwest;" vertex="1" parent="cVKj1Lbu5gOnooN9UQbO-162">
          <mxGeometry y="185.25865497076026" width="180" height="34.73684210526316" as="geometry" />
        </mxCell>
        <mxCell id="cVKj1Lbu5gOnooN9UQbO-160" value="" style="shape=partialRectangle;connectable=0;fillColor=none;top=0;left=0;bottom=0;right=0;editable=1;overflow=hidden;" vertex="1" parent="cVKj1Lbu5gOnooN9UQbO-159">
          <mxGeometry width="30" height="34.73684210526316" as="geometry" />
        </mxCell>
        <mxCell id="cVKj1Lbu5gOnooN9UQbO-161" value="Date" style="shape=partialRectangle;connectable=0;fillColor=none;top=0;left=0;bottom=0;right=0;align=left;spacingLeft=6;overflow=hidden;" vertex="1" parent="cVKj1Lbu5gOnooN9UQbO-159">
          <mxGeometry x="30" width="150" height="34.73684210526316" as="geometry" />
        </mxCell>
        <mxCell id="cVKj1Lbu5gOnooN9UQbO-183" value="" style="group" vertex="1" connectable="0" parent="cVKj1Lbu5gOnooN9UQbO-162">
          <mxGeometry width="180" height="220" as="geometry" />
        </mxCell>
        <mxCell id="cVKj1Lbu5gOnooN9UQbO-15" value="Team" style="shape=table;startSize=30;container=1;collapsible=1;childLayout=tableLayout;fixedRows=1;rowLines=0;fontStyle=1;align=center;resizeLast=1;" vertex="1" parent="cVKj1Lbu5gOnooN9UQbO-183">
          <mxGeometry width="180" height="220" as="geometry" />
        </mxCell>
        <mxCell id="cVKj1Lbu5gOnooN9UQbO-16" value="" style="shape=partialRectangle;collapsible=0;dropTarget=0;pointerEvents=0;fillColor=none;top=0;left=0;bottom=1;right=0;points=[[0,0.5],[1,0.5]];portConstraint=eastwest;" vertex="1" parent="cVKj1Lbu5gOnooN9UQbO-15">
          <mxGeometry y="30" width="180" height="30" as="geometry" />
        </mxCell>
        <mxCell id="cVKj1Lbu5gOnooN9UQbO-17" value="PK" style="shape=partialRectangle;connectable=0;fillColor=none;top=0;left=0;bottom=0;right=0;fontStyle=1;overflow=hidden;" vertex="1" parent="cVKj1Lbu5gOnooN9UQbO-16">
          <mxGeometry width="30" height="30" as="geometry" />
        </mxCell>
        <mxCell id="cVKj1Lbu5gOnooN9UQbO-18" value="ID" style="shape=partialRectangle;connectable=0;fillColor=none;top=0;left=0;bottom=0;right=0;align=left;spacingLeft=6;fontStyle=5;overflow=hidden;" vertex="1" parent="cVKj1Lbu5gOnooN9UQbO-16">
          <mxGeometry x="30" width="150" height="30" as="geometry" />
        </mxCell>
        <mxCell id="cVKj1Lbu5gOnooN9UQbO-19" value="" style="shape=partialRectangle;collapsible=0;dropTarget=0;pointerEvents=0;fillColor=none;top=0;left=0;bottom=0;right=0;points=[[0,0.5],[1,0.5]];portConstraint=eastwest;" vertex="1" parent="cVKj1Lbu5gOnooN9UQbO-15">
          <mxGeometry y="60" width="180" height="30" as="geometry" />
        </mxCell>
        <mxCell id="cVKj1Lbu5gOnooN9UQbO-20" value="FK" style="shape=partialRectangle;connectable=0;fillColor=none;top=0;left=0;bottom=0;right=0;editable=1;overflow=hidden;" vertex="1" parent="cVKj1Lbu5gOnooN9UQbO-19">
          <mxGeometry width="30" height="30" as="geometry" />
        </mxCell>
        <mxCell id="cVKj1Lbu5gOnooN9UQbO-21" value="User ID" style="shape=partialRectangle;connectable=0;fillColor=none;top=0;left=0;bottom=0;right=0;align=left;spacingLeft=6;overflow=hidden;" vertex="1" parent="cVKj1Lbu5gOnooN9UQbO-19">
          <mxGeometry x="30" width="150" height="30" as="geometry" />
        </mxCell>
        <mxCell id="cVKj1Lbu5gOnooN9UQbO-22" value="" style="shape=partialRectangle;collapsible=0;dropTarget=0;pointerEvents=0;fillColor=none;top=0;left=0;bottom=0;right=0;points=[[0,0.5],[1,0.5]];portConstraint=eastwest;" vertex="1" parent="cVKj1Lbu5gOnooN9UQbO-15">
          <mxGeometry y="90" width="180" height="30" as="geometry" />
        </mxCell>
        <mxCell id="cVKj1Lbu5gOnooN9UQbO-23" value="" style="shape=partialRectangle;connectable=0;fillColor=none;top=0;left=0;bottom=0;right=0;editable=1;overflow=hidden;" vertex="1" parent="cVKj1Lbu5gOnooN9UQbO-22">
          <mxGeometry width="30" height="30" as="geometry" />
        </mxCell>
        <mxCell id="cVKj1Lbu5gOnooN9UQbO-24" value="Name" style="shape=partialRectangle;connectable=0;fillColor=none;top=0;left=0;bottom=0;right=0;align=left;spacingLeft=6;overflow=hidden;" vertex="1" parent="cVKj1Lbu5gOnooN9UQbO-22">
          <mxGeometry x="30" width="150" height="30" as="geometry" />
        </mxCell>
        <mxCell id="cVKj1Lbu5gOnooN9UQbO-25" value="" style="shape=partialRectangle;collapsible=0;dropTarget=0;pointerEvents=0;fillColor=none;top=0;left=0;bottom=0;right=0;points=[[0,0.5],[1,0.5]];portConstraint=eastwest;" vertex="1" parent="cVKj1Lbu5gOnooN9UQbO-15">
          <mxGeometry y="120" width="180" height="30" as="geometry" />
        </mxCell>
        <mxCell id="cVKj1Lbu5gOnooN9UQbO-26" value="" style="shape=partialRectangle;connectable=0;fillColor=none;top=0;left=0;bottom=0;right=0;editable=1;overflow=hidden;" vertex="1" parent="cVKj1Lbu5gOnooN9UQbO-25">
          <mxGeometry width="30" height="30" as="geometry" />
        </mxCell>
        <mxCell id="cVKj1Lbu5gOnooN9UQbO-27" value="Description" style="shape=partialRectangle;connectable=0;fillColor=none;top=0;left=0;bottom=0;right=0;align=left;spacingLeft=6;overflow=hidden;" vertex="1" parent="cVKj1Lbu5gOnooN9UQbO-25">
          <mxGeometry x="30" width="150" height="30" as="geometry" />
        </mxCell>
        <mxCell id="cVKj1Lbu5gOnooN9UQbO-180" value="" style="shape=partialRectangle;collapsible=0;dropTarget=0;pointerEvents=0;fillColor=none;top=0;left=0;bottom=0;right=0;points=[[0,0.5],[1,0.5]];portConstraint=eastwest;" vertex="1" parent="cVKj1Lbu5gOnooN9UQbO-183">
          <mxGeometry y="150.520559732665" width="180" height="34.73684210526316" as="geometry" />
        </mxCell>
        <mxCell id="cVKj1Lbu5gOnooN9UQbO-181" value="" style="shape=partialRectangle;connectable=0;fillColor=none;top=0;left=0;bottom=0;right=0;editable=1;overflow=hidden;" vertex="1" parent="cVKj1Lbu5gOnooN9UQbO-180">
          <mxGeometry width="30" height="34.73684210526316" as="geometry" />
        </mxCell>
        <mxCell id="cVKj1Lbu5gOnooN9UQbO-182" value="Status" style="shape=partialRectangle;connectable=0;fillColor=none;top=0;left=0;bottom=0;right=0;align=left;spacingLeft=6;overflow=hidden;" vertex="1" parent="cVKj1Lbu5gOnooN9UQbO-180">
          <mxGeometry x="30" width="150" height="34.73684210526316" as="geometry" />
        </mxCell>
        <mxCell id="cVKj1Lbu5gOnooN9UQbO-166" value="" style="group" vertex="1" connectable="0" parent="1">
          <mxGeometry x="760" y="340" width="180" height="220" as="geometry" />
        </mxCell>
        <mxCell id="cVKj1Lbu5gOnooN9UQbO-163" value="" style="shape=partialRectangle;collapsible=0;dropTarget=0;pointerEvents=0;fillColor=none;top=0;left=0;bottom=0;right=0;points=[[0,0.5],[1,0.5]];portConstraint=eastwest;" vertex="1" parent="cVKj1Lbu5gOnooN9UQbO-166">
          <mxGeometry y="183.32754385964904" width="180" height="34.73684210526316" as="geometry" />
        </mxCell>
        <mxCell id="cVKj1Lbu5gOnooN9UQbO-164" value="" style="shape=partialRectangle;connectable=0;fillColor=none;top=0;left=0;bottom=0;right=0;editable=1;overflow=hidden;" vertex="1" parent="cVKj1Lbu5gOnooN9UQbO-163">
          <mxGeometry width="30" height="34.73684210526316" as="geometry" />
        </mxCell>
        <mxCell id="cVKj1Lbu5gOnooN9UQbO-165" value="Date" style="shape=partialRectangle;connectable=0;fillColor=none;top=0;left=0;bottom=0;right=0;align=left;spacingLeft=6;overflow=hidden;" vertex="1" parent="cVKj1Lbu5gOnooN9UQbO-163">
          <mxGeometry x="30" width="150" height="34.73684210526316" as="geometry" />
        </mxCell>
        <mxCell id="cVKj1Lbu5gOnooN9UQbO-191" value="" style="group" vertex="1" connectable="0" parent="cVKj1Lbu5gOnooN9UQbO-166">
          <mxGeometry width="180" height="220" as="geometry" />
        </mxCell>
        <mxCell id="cVKj1Lbu5gOnooN9UQbO-46" value="Board" style="shape=table;startSize=30;container=1;collapsible=1;childLayout=tableLayout;fixedRows=1;rowLines=0;fontStyle=1;align=center;resizeLast=1;rounded=0;sketch=0;" vertex="1" parent="cVKj1Lbu5gOnooN9UQbO-191">
          <mxGeometry width="180" height="220" as="geometry" />
        </mxCell>
        <mxCell id="cVKj1Lbu5gOnooN9UQbO-47" value="" style="shape=partialRectangle;collapsible=0;dropTarget=0;pointerEvents=0;fillColor=none;top=0;left=0;bottom=1;right=0;points=[[0,0.5],[1,0.5]];portConstraint=eastwest;" vertex="1" parent="cVKj1Lbu5gOnooN9UQbO-46">
          <mxGeometry y="30" width="180" height="30" as="geometry" />
        </mxCell>
        <mxCell id="cVKj1Lbu5gOnooN9UQbO-48" value="PK" style="shape=partialRectangle;connectable=0;fillColor=none;top=0;left=0;bottom=0;right=0;fontStyle=1;overflow=hidden;" vertex="1" parent="cVKj1Lbu5gOnooN9UQbO-47">
          <mxGeometry width="30" height="30" as="geometry" />
        </mxCell>
        <mxCell id="cVKj1Lbu5gOnooN9UQbO-49" value="ID" style="shape=partialRectangle;connectable=0;fillColor=none;top=0;left=0;bottom=0;right=0;align=left;spacingLeft=6;fontStyle=5;overflow=hidden;" vertex="1" parent="cVKj1Lbu5gOnooN9UQbO-47">
          <mxGeometry x="30" width="150" height="30" as="geometry" />
        </mxCell>
        <mxCell id="cVKj1Lbu5gOnooN9UQbO-50" value="" style="shape=partialRectangle;collapsible=0;dropTarget=0;pointerEvents=0;fillColor=none;top=0;left=0;bottom=0;right=0;points=[[0,0.5],[1,0.5]];portConstraint=eastwest;" vertex="1" parent="cVKj1Lbu5gOnooN9UQbO-46">
          <mxGeometry y="60" width="180" height="30" as="geometry" />
        </mxCell>
        <mxCell id="cVKj1Lbu5gOnooN9UQbO-51" value="FK" style="shape=partialRectangle;connectable=0;fillColor=none;top=0;left=0;bottom=0;right=0;editable=1;overflow=hidden;" vertex="1" parent="cVKj1Lbu5gOnooN9UQbO-50">
          <mxGeometry width="30" height="30" as="geometry" />
        </mxCell>
        <mxCell id="cVKj1Lbu5gOnooN9UQbO-52" value="Team Member ID" style="shape=partialRectangle;connectable=0;fillColor=none;top=0;left=0;bottom=0;right=0;align=left;spacingLeft=6;overflow=hidden;" vertex="1" parent="cVKj1Lbu5gOnooN9UQbO-50">
          <mxGeometry x="30" width="150" height="30" as="geometry" />
        </mxCell>
        <mxCell id="cVKj1Lbu5gOnooN9UQbO-53" value="" style="shape=partialRectangle;collapsible=0;dropTarget=0;pointerEvents=0;fillColor=none;top=0;left=0;bottom=0;right=0;points=[[0,0.5],[1,0.5]];portConstraint=eastwest;" vertex="1" parent="cVKj1Lbu5gOnooN9UQbO-46">
          <mxGeometry y="90" width="180" height="30" as="geometry" />
        </mxCell>
        <mxCell id="cVKj1Lbu5gOnooN9UQbO-54" value="" style="shape=partialRectangle;connectable=0;fillColor=none;top=0;left=0;bottom=0;right=0;editable=1;overflow=hidden;" vertex="1" parent="cVKj1Lbu5gOnooN9UQbO-53">
          <mxGeometry width="30" height="30" as="geometry" />
        </mxCell>
        <mxCell id="cVKj1Lbu5gOnooN9UQbO-55" value="Title" style="shape=partialRectangle;connectable=0;fillColor=none;top=0;left=0;bottom=0;right=0;align=left;spacingLeft=6;overflow=hidden;" vertex="1" parent="cVKj1Lbu5gOnooN9UQbO-53">
          <mxGeometry x="30" width="150" height="30" as="geometry" />
        </mxCell>
        <mxCell id="cVKj1Lbu5gOnooN9UQbO-56" value="" style="shape=partialRectangle;collapsible=0;dropTarget=0;pointerEvents=0;fillColor=none;top=0;left=0;bottom=0;right=0;points=[[0,0.5],[1,0.5]];portConstraint=eastwest;" vertex="1" parent="cVKj1Lbu5gOnooN9UQbO-46">
          <mxGeometry y="120" width="180" height="30" as="geometry" />
        </mxCell>
        <mxCell id="cVKj1Lbu5gOnooN9UQbO-57" value="" style="shape=partialRectangle;connectable=0;fillColor=none;top=0;left=0;bottom=0;right=0;editable=1;overflow=hidden;" vertex="1" parent="cVKj1Lbu5gOnooN9UQbO-56">
          <mxGeometry width="30" height="30" as="geometry" />
        </mxCell>
        <mxCell id="cVKj1Lbu5gOnooN9UQbO-58" value="Content" style="shape=partialRectangle;connectable=0;fillColor=none;top=0;left=0;bottom=0;right=0;align=left;spacingLeft=6;overflow=hidden;" vertex="1" parent="cVKj1Lbu5gOnooN9UQbO-56">
          <mxGeometry x="30" width="150" height="30" as="geometry" />
        </mxCell>
        <mxCell id="cVKj1Lbu5gOnooN9UQbO-188" value="" style="shape=partialRectangle;collapsible=0;dropTarget=0;pointerEvents=0;fillColor=none;top=0;left=0;bottom=0;right=0;points=[[0,0.5],[1,0.5]];portConstraint=eastwest;" vertex="1" parent="cVKj1Lbu5gOnooN9UQbO-191">
          <mxGeometry y="146.93344352945857" width="180" height="36.390977443609025" as="geometry" />
        </mxCell>
        <mxCell id="cVKj1Lbu5gOnooN9UQbO-189" value="" style="shape=partialRectangle;connectable=0;fillColor=none;top=0;left=0;bottom=0;right=0;editable=1;overflow=hidden;" vertex="1" parent="cVKj1Lbu5gOnooN9UQbO-188">
          <mxGeometry width="30" height="36.390977443609025" as="geometry" />
        </mxCell>
        <mxCell id="cVKj1Lbu5gOnooN9UQbO-190" value="Status" style="shape=partialRectangle;connectable=0;fillColor=none;top=0;left=0;bottom=0;right=0;align=left;spacingLeft=6;overflow=hidden;" vertex="1" parent="cVKj1Lbu5gOnooN9UQbO-188">
          <mxGeometry x="30" width="150" height="36.390977443609025" as="geometry" />
        </mxCell>
        <mxCell id="cVKj1Lbu5gOnooN9UQbO-179" value="" style="group" vertex="1" connectable="0" parent="1">
          <mxGeometry x="380" y="650" width="180" height="220" as="geometry" />
        </mxCell>
        <mxCell id="cVKj1Lbu5gOnooN9UQbO-176" value="" style="shape=partialRectangle;collapsible=0;dropTarget=0;pointerEvents=0;fillColor=none;top=0;left=0;bottom=0;right=0;points=[[0,0.5],[1,0.5]];portConstraint=eastwest;" vertex="1" parent="cVKj1Lbu5gOnooN9UQbO-179">
          <mxGeometry y="183.33333333333334" width="180" height="36.66666666666667" as="geometry" />
        </mxCell>
        <mxCell id="cVKj1Lbu5gOnooN9UQbO-177" value="" style="shape=partialRectangle;connectable=0;fillColor=none;top=0;left=0;bottom=0;right=0;editable=1;overflow=hidden;" vertex="1" parent="cVKj1Lbu5gOnooN9UQbO-176">
          <mxGeometry width="30" height="36.66666666666667" as="geometry" />
        </mxCell>
        <mxCell id="cVKj1Lbu5gOnooN9UQbO-178" value="Date" style="shape=partialRectangle;connectable=0;fillColor=none;top=0;left=0;bottom=0;right=0;align=left;spacingLeft=6;overflow=hidden;" vertex="1" parent="cVKj1Lbu5gOnooN9UQbO-176">
          <mxGeometry x="30" width="150" height="36.66666666666667" as="geometry" />
        </mxCell>
        <mxCell id="cVKj1Lbu5gOnooN9UQbO-195" value="" style="group" vertex="1" connectable="0" parent="cVKj1Lbu5gOnooN9UQbO-179">
          <mxGeometry width="180" height="220" as="geometry" />
        </mxCell>
        <mxCell id="cVKj1Lbu5gOnooN9UQbO-60" value="Card" style="shape=table;startSize=30;container=1;collapsible=1;childLayout=tableLayout;fixedRows=1;rowLines=0;fontStyle=1;align=center;resizeLast=1;rounded=0;sketch=0;" vertex="1" parent="cVKj1Lbu5gOnooN9UQbO-195">
          <mxGeometry width="180" height="220" as="geometry" />
        </mxCell>
        <mxCell id="cVKj1Lbu5gOnooN9UQbO-61" value="" style="shape=partialRectangle;collapsible=0;dropTarget=0;pointerEvents=0;fillColor=none;top=0;left=0;bottom=1;right=0;points=[[0,0.5],[1,0.5]];portConstraint=eastwest;" vertex="1" parent="cVKj1Lbu5gOnooN9UQbO-60">
          <mxGeometry y="30" width="180" height="30" as="geometry" />
        </mxCell>
        <mxCell id="cVKj1Lbu5gOnooN9UQbO-62" value="PK" style="shape=partialRectangle;connectable=0;fillColor=none;top=0;left=0;bottom=0;right=0;fontStyle=1;overflow=hidden;" vertex="1" parent="cVKj1Lbu5gOnooN9UQbO-61">
          <mxGeometry width="30" height="30" as="geometry" />
        </mxCell>
        <mxCell id="cVKj1Lbu5gOnooN9UQbO-63" value="ID" style="shape=partialRectangle;connectable=0;fillColor=none;top=0;left=0;bottom=0;right=0;align=left;spacingLeft=6;fontStyle=5;overflow=hidden;" vertex="1" parent="cVKj1Lbu5gOnooN9UQbO-61">
          <mxGeometry x="30" width="150" height="30" as="geometry" />
        </mxCell>
        <mxCell id="cVKj1Lbu5gOnooN9UQbO-64" value="" style="shape=partialRectangle;collapsible=0;dropTarget=0;pointerEvents=0;fillColor=none;top=0;left=0;bottom=0;right=0;points=[[0,0.5],[1,0.5]];portConstraint=eastwest;" vertex="1" parent="cVKj1Lbu5gOnooN9UQbO-60">
          <mxGeometry y="60" width="180" height="30" as="geometry" />
        </mxCell>
        <mxCell id="cVKj1Lbu5gOnooN9UQbO-65" value="FK" style="shape=partialRectangle;connectable=0;fillColor=none;top=0;left=0;bottom=0;right=0;editable=1;overflow=hidden;" vertex="1" parent="cVKj1Lbu5gOnooN9UQbO-64">
          <mxGeometry width="30" height="30" as="geometry" />
        </mxCell>
        <mxCell id="cVKj1Lbu5gOnooN9UQbO-66" value="Team Member ID" style="shape=partialRectangle;connectable=0;fillColor=none;top=0;left=0;bottom=0;right=0;align=left;spacingLeft=6;overflow=hidden;" vertex="1" parent="cVKj1Lbu5gOnooN9UQbO-64">
          <mxGeometry x="30" width="150" height="30" as="geometry" />
        </mxCell>
        <mxCell id="cVKj1Lbu5gOnooN9UQbO-67" value="" style="shape=partialRectangle;collapsible=0;dropTarget=0;pointerEvents=0;fillColor=none;top=0;left=0;bottom=0;right=0;points=[[0,0.5],[1,0.5]];portConstraint=eastwest;" vertex="1" parent="cVKj1Lbu5gOnooN9UQbO-60">
          <mxGeometry y="90" width="180" height="30" as="geometry" />
        </mxCell>
        <mxCell id="cVKj1Lbu5gOnooN9UQbO-68" value="" style="shape=partialRectangle;connectable=0;fillColor=none;top=0;left=0;bottom=0;right=0;editable=1;overflow=hidden;" vertex="1" parent="cVKj1Lbu5gOnooN9UQbO-67">
          <mxGeometry width="30" height="30" as="geometry" />
        </mxCell>
        <mxCell id="cVKj1Lbu5gOnooN9UQbO-69" value="Title" style="shape=partialRectangle;connectable=0;fillColor=none;top=0;left=0;bottom=0;right=0;align=left;spacingLeft=6;overflow=hidden;" vertex="1" parent="cVKj1Lbu5gOnooN9UQbO-67">
          <mxGeometry x="30" width="150" height="30" as="geometry" />
        </mxCell>
        <mxCell id="cVKj1Lbu5gOnooN9UQbO-70" value="" style="shape=partialRectangle;collapsible=0;dropTarget=0;pointerEvents=0;fillColor=none;top=0;left=0;bottom=0;right=0;points=[[0,0.5],[1,0.5]];portConstraint=eastwest;" vertex="1" parent="cVKj1Lbu5gOnooN9UQbO-60">
          <mxGeometry y="120" width="180" height="30" as="geometry" />
        </mxCell>
        <mxCell id="cVKj1Lbu5gOnooN9UQbO-71" value="" style="shape=partialRectangle;connectable=0;fillColor=none;top=0;left=0;bottom=0;right=0;editable=1;overflow=hidden;" vertex="1" parent="cVKj1Lbu5gOnooN9UQbO-70">
          <mxGeometry width="30" height="30" as="geometry" />
        </mxCell>
        <mxCell id="cVKj1Lbu5gOnooN9UQbO-72" value="Content" style="shape=partialRectangle;connectable=0;fillColor=none;top=0;left=0;bottom=0;right=0;align=left;spacingLeft=6;overflow=hidden;" vertex="1" parent="cVKj1Lbu5gOnooN9UQbO-70">
          <mxGeometry x="30" width="150" height="30" as="geometry" />
        </mxCell>
        <mxCell id="cVKj1Lbu5gOnooN9UQbO-192" value="" style="shape=partialRectangle;collapsible=0;dropTarget=0;pointerEvents=0;fillColor=none;top=0;left=0;bottom=0;right=0;points=[[0,0.5],[1,0.5]];portConstraint=eastwest;" vertex="1" parent="cVKj1Lbu5gOnooN9UQbO-195">
          <mxGeometry y="144.91998404300003" width="180" height="38.41269841269841" as="geometry" />
        </mxCell>
        <mxCell id="cVKj1Lbu5gOnooN9UQbO-193" value="" style="shape=partialRectangle;connectable=0;fillColor=none;top=0;left=0;bottom=0;right=0;editable=1;overflow=hidden;" vertex="1" parent="cVKj1Lbu5gOnooN9UQbO-192">
          <mxGeometry width="30" height="38.41269841269841" as="geometry" />
        </mxCell>
        <mxCell id="cVKj1Lbu5gOnooN9UQbO-194" value="Status" style="shape=partialRectangle;connectable=0;fillColor=none;top=0;left=0;bottom=0;right=0;align=left;spacingLeft=6;overflow=hidden;" vertex="1" parent="cVKj1Lbu5gOnooN9UQbO-192">
          <mxGeometry x="30" width="150" height="38.41269841269841" as="geometry" />
        </mxCell>
        <mxCell id="cVKj1Lbu5gOnooN9UQbO-203" value="" style="group" vertex="1" connectable="0" parent="1">
          <mxGeometry x="70" y="340" width="180" height="350" as="geometry" />
        </mxCell>
        <mxCell id="cVKj1Lbu5gOnooN9UQbO-202" value="" style="group" vertex="1" connectable="0" parent="cVKj1Lbu5gOnooN9UQbO-203">
          <mxGeometry width="180" height="350" as="geometry" />
        </mxCell>
        <mxCell id="cVKj1Lbu5gOnooN9UQbO-214" value="" style="group" vertex="1" connectable="0" parent="cVKj1Lbu5gOnooN9UQbO-202">
          <mxGeometry width="180" height="350" as="geometry" />
        </mxCell>
        <mxCell id="cVKj1Lbu5gOnooN9UQbO-199" value="" style="group" vertex="1" connectable="0" parent="cVKj1Lbu5gOnooN9UQbO-214">
          <mxGeometry y="147.92965517241382" width="180" height="34.13793103448276" as="geometry" />
        </mxCell>
        <mxCell id="cVKj1Lbu5gOnooN9UQbO-196" value="Extension" style="shape=partialRectangle;connectable=0;fillColor=none;top=0;left=0;bottom=0;right=0;align=left;spacingLeft=6;overflow=hidden;" vertex="1" parent="cVKj1Lbu5gOnooN9UQbO-199">
          <mxGeometry x="30" width="150" height="34.13793103448276" as="geometry" />
        </mxCell>
        <mxCell id="cVKj1Lbu5gOnooN9UQbO-198" value="" style="shape=partialRectangle;connectable=0;fillColor=none;top=0;left=0;bottom=0;right=0;editable=1;overflow=hidden;" vertex="1" parent="cVKj1Lbu5gOnooN9UQbO-199">
          <mxGeometry width="30" height="34.13793103448276" as="geometry" />
        </mxCell>
        <mxCell id="cVKj1Lbu5gOnooN9UQbO-201" value="" style="group" vertex="1" connectable="0" parent="cVKj1Lbu5gOnooN9UQbO-214">
          <mxGeometry y="182.06758620689658" width="180" height="34.13793103448276" as="geometry" />
        </mxCell>
        <mxCell id="cVKj1Lbu5gOnooN9UQbO-197" value="File Name" style="shape=partialRectangle;connectable=0;fillColor=none;top=0;left=0;bottom=0;right=0;align=left;spacingLeft=6;overflow=hidden;" vertex="1" parent="cVKj1Lbu5gOnooN9UQbO-201">
          <mxGeometry x="30" width="150" height="34.13793103448276" as="geometry" />
        </mxCell>
        <mxCell id="cVKj1Lbu5gOnooN9UQbO-200" value="" style="shape=partialRectangle;connectable=0;fillColor=none;top=0;left=0;bottom=0;right=0;editable=1;overflow=hidden;" vertex="1" parent="cVKj1Lbu5gOnooN9UQbO-201">
          <mxGeometry width="30" height="34.13793103448276" as="geometry" />
        </mxCell>
        <mxCell id="cVKj1Lbu5gOnooN9UQbO-205" value="" style="group" vertex="1" connectable="0" parent="cVKj1Lbu5gOnooN9UQbO-214">
          <mxGeometry y="209.99551724137933" width="180" height="34.13793103448276" as="geometry" />
        </mxCell>
        <mxCell id="cVKj1Lbu5gOnooN9UQbO-206" value="Size" style="shape=partialRectangle;connectable=0;fillColor=none;top=0;left=0;bottom=0;right=0;align=left;spacingLeft=6;overflow=hidden;" vertex="1" parent="cVKj1Lbu5gOnooN9UQbO-205">
          <mxGeometry x="30" width="150" height="34.13793103448276" as="geometry" />
        </mxCell>
        <mxCell id="cVKj1Lbu5gOnooN9UQbO-207" value="" style="shape=partialRectangle;connectable=0;fillColor=none;top=0;left=0;bottom=0;right=0;editable=1;overflow=hidden;" vertex="1" parent="cVKj1Lbu5gOnooN9UQbO-205">
          <mxGeometry width="30" height="34.13793103448276" as="geometry" />
        </mxCell>
        <mxCell id="cVKj1Lbu5gOnooN9UQbO-211" value="" style="group" vertex="1" connectable="0" parent="cVKj1Lbu5gOnooN9UQbO-214">
          <mxGeometry y="244.1334482758621" width="180" height="34.13793103448276" as="geometry" />
        </mxCell>
        <mxCell id="cVKj1Lbu5gOnooN9UQbO-212" value="Desciption" style="shape=partialRectangle;connectable=0;fillColor=none;top=0;left=0;bottom=0;right=0;align=left;spacingLeft=6;overflow=hidden;" vertex="1" parent="cVKj1Lbu5gOnooN9UQbO-211">
          <mxGeometry x="30" width="150" height="34.13793103448276" as="geometry" />
        </mxCell>
        <mxCell id="cVKj1Lbu5gOnooN9UQbO-213" value="" style="shape=partialRectangle;connectable=0;fillColor=none;top=0;left=0;bottom=0;right=0;editable=1;overflow=hidden;" vertex="1" parent="cVKj1Lbu5gOnooN9UQbO-211">
          <mxGeometry width="30" height="34.13793103448276" as="geometry" />
        </mxCell>
        <mxCell id="cVKj1Lbu5gOnooN9UQbO-215" value="" style="group" vertex="1" connectable="0" parent="cVKj1Lbu5gOnooN9UQbO-214">
          <mxGeometry y="278.27344827586205" width="180" height="34.13793103448276" as="geometry" />
        </mxCell>
        <mxCell id="cVKj1Lbu5gOnooN9UQbO-216" value="Date" style="shape=partialRectangle;connectable=0;fillColor=none;top=0;left=0;bottom=0;right=0;align=left;spacingLeft=6;overflow=hidden;" vertex="1" parent="cVKj1Lbu5gOnooN9UQbO-215">
          <mxGeometry x="30" width="150" height="34.13793103448276" as="geometry" />
        </mxCell>
        <mxCell id="cVKj1Lbu5gOnooN9UQbO-217" value="" style="shape=partialRectangle;connectable=0;fillColor=none;top=0;left=0;bottom=0;right=0;editable=1;overflow=hidden;" vertex="1" parent="cVKj1Lbu5gOnooN9UQbO-215">
          <mxGeometry width="30" height="34.13793103448276" as="geometry" />
        </mxCell>
        <mxCell id="cVKj1Lbu5gOnooN9UQbO-221" value="" style="group" vertex="1" connectable="0" parent="cVKj1Lbu5gOnooN9UQbO-214">
          <mxGeometry width="180" height="350" as="geometry" />
        </mxCell>
        <mxCell id="cVKj1Lbu5gOnooN9UQbO-105" value="Attachment" style="shape=table;startSize=30;container=1;collapsible=1;childLayout=tableLayout;fixedRows=1;rowLines=0;fontStyle=1;align=center;resizeLast=1;rounded=0;sketch=0;" vertex="1" parent="cVKj1Lbu5gOnooN9UQbO-221">
          <mxGeometry width="180" height="350" as="geometry" />
        </mxCell>
        <mxCell id="cVKj1Lbu5gOnooN9UQbO-106" value="" style="shape=partialRectangle;collapsible=0;dropTarget=0;pointerEvents=0;fillColor=none;top=0;left=0;bottom=1;right=0;points=[[0,0.5],[1,0.5]];portConstraint=eastwest;" vertex="1" parent="cVKj1Lbu5gOnooN9UQbO-105">
          <mxGeometry y="30" width="180" height="30" as="geometry" />
        </mxCell>
        <mxCell id="cVKj1Lbu5gOnooN9UQbO-107" value="PK" style="shape=partialRectangle;connectable=0;fillColor=none;top=0;left=0;bottom=0;right=0;fontStyle=1;overflow=hidden;" vertex="1" parent="cVKj1Lbu5gOnooN9UQbO-106">
          <mxGeometry width="30" height="30" as="geometry" />
        </mxCell>
        <mxCell id="cVKj1Lbu5gOnooN9UQbO-108" value="ID" style="shape=partialRectangle;connectable=0;fillColor=none;top=0;left=0;bottom=0;right=0;align=left;spacingLeft=6;fontStyle=5;overflow=hidden;" vertex="1" parent="cVKj1Lbu5gOnooN9UQbO-106">
          <mxGeometry x="30" width="150" height="30" as="geometry" />
        </mxCell>
        <mxCell id="cVKj1Lbu5gOnooN9UQbO-109" value="" style="shape=partialRectangle;collapsible=0;dropTarget=0;pointerEvents=0;fillColor=none;top=0;left=0;bottom=0;right=0;points=[[0,0.5],[1,0.5]];portConstraint=eastwest;" vertex="1" parent="cVKj1Lbu5gOnooN9UQbO-105">
          <mxGeometry y="60" width="180" height="30" as="geometry" />
        </mxCell>
        <mxCell id="cVKj1Lbu5gOnooN9UQbO-110" value="FK" style="shape=partialRectangle;connectable=0;fillColor=none;top=0;left=0;bottom=0;right=0;editable=1;overflow=hidden;" vertex="1" parent="cVKj1Lbu5gOnooN9UQbO-109">
          <mxGeometry width="30" height="30" as="geometry" />
        </mxCell>
        <mxCell id="cVKj1Lbu5gOnooN9UQbO-111" value="Card ID" style="shape=partialRectangle;connectable=0;fillColor=none;top=0;left=0;bottom=0;right=0;align=left;spacingLeft=6;overflow=hidden;" vertex="1" parent="cVKj1Lbu5gOnooN9UQbO-109">
          <mxGeometry x="30" width="150" height="30" as="geometry" />
        </mxCell>
        <mxCell id="cVKj1Lbu5gOnooN9UQbO-112" value="" style="shape=partialRectangle;collapsible=0;dropTarget=0;pointerEvents=0;fillColor=none;top=0;left=0;bottom=0;right=0;points=[[0,0.5],[1,0.5]];portConstraint=eastwest;" vertex="1" parent="cVKj1Lbu5gOnooN9UQbO-105">
          <mxGeometry y="90" width="180" height="30" as="geometry" />
        </mxCell>
        <mxCell id="cVKj1Lbu5gOnooN9UQbO-113" value="" style="shape=partialRectangle;connectable=0;fillColor=none;top=0;left=0;bottom=0;right=0;editable=1;overflow=hidden;" vertex="1" parent="cVKj1Lbu5gOnooN9UQbO-112">
          <mxGeometry width="30" height="30" as="geometry" />
        </mxCell>
        <mxCell id="cVKj1Lbu5gOnooN9UQbO-114" value="Path" style="shape=partialRectangle;connectable=0;fillColor=none;top=0;left=0;bottom=0;right=0;align=left;spacingLeft=6;overflow=hidden;" vertex="1" parent="cVKj1Lbu5gOnooN9UQbO-112">
          <mxGeometry x="30" width="150" height="30" as="geometry" />
        </mxCell>
        <mxCell id="cVKj1Lbu5gOnooN9UQbO-115" value="" style="shape=partialRectangle;collapsible=0;dropTarget=0;pointerEvents=0;fillColor=none;top=0;left=0;bottom=0;right=0;points=[[0,0.5],[1,0.5]];portConstraint=eastwest;" vertex="1" parent="cVKj1Lbu5gOnooN9UQbO-105">
          <mxGeometry y="120" width="180" height="30" as="geometry" />
        </mxCell>
        <mxCell id="cVKj1Lbu5gOnooN9UQbO-116" value="" style="shape=partialRectangle;connectable=0;fillColor=none;top=0;left=0;bottom=0;right=0;editable=1;overflow=hidden;" vertex="1" parent="cVKj1Lbu5gOnooN9UQbO-115">
          <mxGeometry width="30" height="30" as="geometry" />
        </mxCell>
        <mxCell id="cVKj1Lbu5gOnooN9UQbO-117" value="System File Name" style="shape=partialRectangle;connectable=0;fillColor=none;top=0;left=0;bottom=0;right=0;align=left;spacingLeft=6;overflow=hidden;" vertex="1" parent="cVKj1Lbu5gOnooN9UQbO-115">
          <mxGeometry x="30" width="150" height="30" as="geometry" />
        </mxCell>
        <mxCell id="cVKj1Lbu5gOnooN9UQbO-218" value="" style="group" vertex="1" connectable="0" parent="cVKj1Lbu5gOnooN9UQbO-221">
          <mxGeometry y="312.41344827586204" width="180" height="34.13793103448276" as="geometry" />
        </mxCell>
        <mxCell id="cVKj1Lbu5gOnooN9UQbO-219" value="Status" style="shape=partialRectangle;connectable=0;fillColor=none;top=0;left=0;bottom=0;right=0;align=left;spacingLeft=6;overflow=hidden;" vertex="1" parent="cVKj1Lbu5gOnooN9UQbO-218">
          <mxGeometry x="30" width="150" height="34.13793103448276" as="geometry" />
        </mxCell>
        <mxCell id="cVKj1Lbu5gOnooN9UQbO-220" value="" style="shape=partialRectangle;connectable=0;fillColor=none;top=0;left=0;bottom=0;right=0;editable=1;overflow=hidden;" vertex="1" parent="cVKj1Lbu5gOnooN9UQbO-218">
          <mxGeometry width="30" height="34.13793103448276" as="geometry" />
        </mxCell>
        <mxCell id="cVKj1Lbu5gOnooN9UQbO-222" value="" style="edgeStyle=entityRelationEdgeStyle;fontSize=12;html=1;endArrow=ERzeroToMany;startArrow=ERmandOne;entryX=1;entryY=0.5;entryDx=0;entryDy=0;exitX=0;exitY=0.5;exitDx=0;exitDy=0;" edge="1" parent="1" source="cVKj1Lbu5gOnooN9UQbO-32" target="cVKj1Lbu5gOnooN9UQbO-98">
          <mxGeometry width="100" height="100" relative="1" as="geometry">
            <mxPoint x="360" y="550" as="sourcePoint" />
            <mxPoint x="109.99999999999977" y="910" as="targetPoint" />
          </mxGeometry>
        </mxCell>
        <mxCell id="cVKj1Lbu5gOnooN9UQbO-226" value="" style="group" vertex="1" connectable="0" parent="1">
          <mxGeometry x="50" y="840" width="180" height="210" as="geometry" />
        </mxCell>
        <mxCell id="cVKj1Lbu5gOnooN9UQbO-91" value="Reply" style="shape=table;startSize=30;container=1;collapsible=1;childLayout=tableLayout;fixedRows=1;rowLines=0;fontStyle=1;align=center;resizeLast=1;rounded=0;sketch=0;" vertex="1" parent="cVKj1Lbu5gOnooN9UQbO-226">
          <mxGeometry width="180" height="210" as="geometry" />
        </mxCell>
        <mxCell id="cVKj1Lbu5gOnooN9UQbO-92" value="" style="shape=partialRectangle;collapsible=0;dropTarget=0;pointerEvents=0;fillColor=none;top=0;left=0;bottom=1;right=0;points=[[0,0.5],[1,0.5]];portConstraint=eastwest;" vertex="1" parent="cVKj1Lbu5gOnooN9UQbO-91">
          <mxGeometry y="30" width="180" height="30" as="geometry" />
        </mxCell>
        <mxCell id="cVKj1Lbu5gOnooN9UQbO-93" value="PK" style="shape=partialRectangle;connectable=0;fillColor=none;top=0;left=0;bottom=0;right=0;fontStyle=1;overflow=hidden;" vertex="1" parent="cVKj1Lbu5gOnooN9UQbO-92">
          <mxGeometry width="30" height="30" as="geometry" />
        </mxCell>
        <mxCell id="cVKj1Lbu5gOnooN9UQbO-94" value="ID" style="shape=partialRectangle;connectable=0;fillColor=none;top=0;left=0;bottom=0;right=0;align=left;spacingLeft=6;fontStyle=5;overflow=hidden;" vertex="1" parent="cVKj1Lbu5gOnooN9UQbO-92">
          <mxGeometry x="30" width="150" height="30" as="geometry" />
        </mxCell>
        <mxCell id="cVKj1Lbu5gOnooN9UQbO-95" value="" style="shape=partialRectangle;collapsible=0;dropTarget=0;pointerEvents=0;fillColor=none;top=0;left=0;bottom=0;right=0;points=[[0,0.5],[1,0.5]];portConstraint=eastwest;" vertex="1" parent="cVKj1Lbu5gOnooN9UQbO-91">
          <mxGeometry y="60" width="180" height="30" as="geometry" />
        </mxCell>
        <mxCell id="cVKj1Lbu5gOnooN9UQbO-96" value="FK" style="shape=partialRectangle;connectable=0;fillColor=none;top=0;left=0;bottom=0;right=0;editable=1;overflow=hidden;" vertex="1" parent="cVKj1Lbu5gOnooN9UQbO-95">
          <mxGeometry width="30" height="30" as="geometry" />
        </mxCell>
        <mxCell id="cVKj1Lbu5gOnooN9UQbO-97" value="Card ID" style="shape=partialRectangle;connectable=0;fillColor=none;top=0;left=0;bottom=0;right=0;align=left;spacingLeft=6;overflow=hidden;" vertex="1" parent="cVKj1Lbu5gOnooN9UQbO-95">
          <mxGeometry x="30" width="150" height="30" as="geometry" />
        </mxCell>
        <mxCell id="cVKj1Lbu5gOnooN9UQbO-98" value="" style="shape=partialRectangle;collapsible=0;dropTarget=0;pointerEvents=0;fillColor=none;top=0;left=0;bottom=0;right=0;points=[[0,0.5],[1,0.5]];portConstraint=eastwest;" vertex="1" parent="cVKj1Lbu5gOnooN9UQbO-91">
          <mxGeometry y="90" width="180" height="30" as="geometry" />
        </mxCell>
        <mxCell id="cVKj1Lbu5gOnooN9UQbO-99" value="FK" style="shape=partialRectangle;connectable=0;fillColor=none;top=0;left=0;bottom=0;right=0;editable=1;overflow=hidden;" vertex="1" parent="cVKj1Lbu5gOnooN9UQbO-98">
          <mxGeometry width="30" height="30" as="geometry" />
        </mxCell>
        <mxCell id="cVKj1Lbu5gOnooN9UQbO-100" value="Team Member ID" style="shape=partialRectangle;connectable=0;fillColor=none;top=0;left=0;bottom=0;right=0;align=left;spacingLeft=6;overflow=hidden;" vertex="1" parent="cVKj1Lbu5gOnooN9UQbO-98">
          <mxGeometry x="30" width="150" height="30" as="geometry" />
        </mxCell>
        <mxCell id="cVKj1Lbu5gOnooN9UQbO-101" value="" style="shape=partialRectangle;collapsible=0;dropTarget=0;pointerEvents=0;fillColor=none;top=0;left=0;bottom=0;right=0;points=[[0,0.5],[1,0.5]];portConstraint=eastwest;" vertex="1" parent="cVKj1Lbu5gOnooN9UQbO-91">
          <mxGeometry y="120" width="180" height="30" as="geometry" />
        </mxCell>
        <mxCell id="cVKj1Lbu5gOnooN9UQbO-102" value="" style="shape=partialRectangle;connectable=0;fillColor=none;top=0;left=0;bottom=0;right=0;editable=1;overflow=hidden;" vertex="1" parent="cVKj1Lbu5gOnooN9UQbO-101">
          <mxGeometry width="30" height="30" as="geometry" />
        </mxCell>
        <mxCell id="cVKj1Lbu5gOnooN9UQbO-103" value="Content" style="shape=partialRectangle;connectable=0;fillColor=none;top=0;left=0;bottom=0;right=0;align=left;spacingLeft=6;overflow=hidden;" vertex="1" parent="cVKj1Lbu5gOnooN9UQbO-101">
          <mxGeometry x="30" width="150" height="30" as="geometry" />
        </mxCell>
        <mxCell id="cVKj1Lbu5gOnooN9UQbO-223" value="" style="shape=partialRectangle;collapsible=0;dropTarget=0;pointerEvents=0;fillColor=none;top=0;left=0;bottom=0;right=0;points=[[0,0.5],[1,0.5]];portConstraint=eastwest;" vertex="1" parent="cVKj1Lbu5gOnooN9UQbO-226">
          <mxGeometry y="150" width="180" height="30" as="geometry" />
        </mxCell>
        <mxCell id="cVKj1Lbu5gOnooN9UQbO-224" value="" style="shape=partialRectangle;connectable=0;fillColor=none;top=0;left=0;bottom=0;right=0;editable=1;overflow=hidden;" vertex="1" parent="cVKj1Lbu5gOnooN9UQbO-223">
          <mxGeometry width="30" height="30" as="geometry" />
        </mxCell>
        <mxCell id="cVKj1Lbu5gOnooN9UQbO-225" value="Date" style="shape=partialRectangle;connectable=0;fillColor=none;top=0;left=0;bottom=0;right=0;align=left;spacingLeft=6;overflow=hidden;" vertex="1" parent="cVKj1Lbu5gOnooN9UQbO-223">
          <mxGeometry x="30" width="150" height="30" as="geometry" />
        </mxCell>
      </root>
    </mxGraphModel>
  </diagram>
</mxfile>
